<mxfile host="app.diagrams.net" agent="Mozilla/5.0 (Windows NT 10.0; Win64; x64) AppleWebKit/537.36 (KHTML, like Gecko) Chrome/131.0.0.0 Safari/537.36" version="26.0.9">
  <diagram name="Page-1" id="ySIfyWyib5sJ5Iywpmjq">
    <mxGraphModel dx="1235" dy="655" grid="1" gridSize="10" guides="1" tooltips="1" connect="1" arrows="1" fold="1" page="1" pageScale="1" pageWidth="850" pageHeight="1100" math="0" shadow="0">
      <root>
        <mxCell id="0" />
        <mxCell id="1" parent="0" />
        <mxCell id="1-wTdtNywMdqqIvWyYzU-6" style="edgeStyle=orthogonalEdgeStyle;rounded=0;orthogonalLoop=1;jettySize=auto;html=1;exitX=0.25;exitY=1;exitDx=0;exitDy=0;entryX=0.25;entryY=0;entryDx=0;entryDy=0;" edge="1" parent="1" source="1-wTdtNywMdqqIvWyYzU-4" target="1-wTdtNywMdqqIvWyYzU-5">
          <mxGeometry relative="1" as="geometry" />
        </mxCell>
        <mxCell id="1-wTdtNywMdqqIvWyYzU-4" value="Web Browser" style="rounded=0;whiteSpace=wrap;html=1;" vertex="1" parent="1">
          <mxGeometry x="120" y="80" width="120" height="60" as="geometry" />
        </mxCell>
        <mxCell id="1-wTdtNywMdqqIvWyYzU-7" style="edgeStyle=orthogonalEdgeStyle;rounded=0;orthogonalLoop=1;jettySize=auto;html=1;exitX=0.75;exitY=0;exitDx=0;exitDy=0;entryX=0.75;entryY=1;entryDx=0;entryDy=0;" edge="1" parent="1" source="1-wTdtNywMdqqIvWyYzU-5" target="1-wTdtNywMdqqIvWyYzU-4">
          <mxGeometry relative="1" as="geometry" />
        </mxCell>
        <mxCell id="1-wTdtNywMdqqIvWyYzU-18" style="edgeStyle=orthogonalEdgeStyle;rounded=0;orthogonalLoop=1;jettySize=auto;html=1;exitX=1;exitY=0.25;exitDx=0;exitDy=0;entryX=0;entryY=0.25;entryDx=0;entryDy=0;" edge="1" parent="1" source="1-wTdtNywMdqqIvWyYzU-5" target="1-wTdtNywMdqqIvWyYzU-10">
          <mxGeometry relative="1" as="geometry" />
        </mxCell>
        <mxCell id="1-wTdtNywMdqqIvWyYzU-5" value="UI NextJS" style="rounded=0;whiteSpace=wrap;html=1;fillColor=#dae8fc;strokeColor=#6c8ebf;" vertex="1" parent="1">
          <mxGeometry x="120" y="180" width="120" height="60" as="geometry" />
        </mxCell>
        <mxCell id="1-wTdtNywMdqqIvWyYzU-8" value="Interact" style="text;html=1;align=center;verticalAlign=middle;whiteSpace=wrap;rounded=0;" vertex="1" parent="1">
          <mxGeometry x="91" y="144" width="60" height="30" as="geometry" />
        </mxCell>
        <mxCell id="1-wTdtNywMdqqIvWyYzU-9" value="Display" style="text;html=1;align=center;verticalAlign=middle;whiteSpace=wrap;rounded=0;" vertex="1" parent="1">
          <mxGeometry x="210" y="144" width="60" height="30" as="geometry" />
        </mxCell>
        <mxCell id="1-wTdtNywMdqqIvWyYzU-19" style="edgeStyle=orthogonalEdgeStyle;rounded=0;orthogonalLoop=1;jettySize=auto;html=1;exitX=0;exitY=0.75;exitDx=0;exitDy=0;entryX=1;entryY=0.75;entryDx=0;entryDy=0;" edge="1" parent="1" source="1-wTdtNywMdqqIvWyYzU-10" target="1-wTdtNywMdqqIvWyYzU-5">
          <mxGeometry relative="1" as="geometry" />
        </mxCell>
        <mxCell id="1-wTdtNywMdqqIvWyYzU-22" style="edgeStyle=orthogonalEdgeStyle;rounded=0;orthogonalLoop=1;jettySize=auto;html=1;exitX=0.25;exitY=1;exitDx=0;exitDy=0;entryX=0.25;entryY=0;entryDx=0;entryDy=0;" edge="1" parent="1" source="1-wTdtNywMdqqIvWyYzU-10" target="1-wTdtNywMdqqIvWyYzU-20">
          <mxGeometry relative="1" as="geometry" />
        </mxCell>
        <mxCell id="1-wTdtNywMdqqIvWyYzU-10" value="Server&lt;div&gt;(Node JS)&lt;/div&gt;" style="rounded=0;whiteSpace=wrap;html=1;fillColor=#ffe6cc;strokeColor=#d79b00;" vertex="1" parent="1">
          <mxGeometry x="360" y="180" width="120" height="60" as="geometry" />
        </mxCell>
        <mxCell id="1-wTdtNywMdqqIvWyYzU-23" style="edgeStyle=orthogonalEdgeStyle;rounded=0;orthogonalLoop=1;jettySize=auto;html=1;exitX=0.75;exitY=0;exitDx=0;exitDy=0;entryX=0.75;entryY=1;entryDx=0;entryDy=0;" edge="1" parent="1" source="1-wTdtNywMdqqIvWyYzU-20" target="1-wTdtNywMdqqIvWyYzU-10">
          <mxGeometry relative="1" as="geometry" />
        </mxCell>
        <mxCell id="1-wTdtNywMdqqIvWyYzU-27" style="edgeStyle=orthogonalEdgeStyle;rounded=0;orthogonalLoop=1;jettySize=auto;html=1;exitX=0.25;exitY=1;exitDx=0;exitDy=0;entryX=0.25;entryY=0;entryDx=0;entryDy=0;" edge="1" parent="1" source="1-wTdtNywMdqqIvWyYzU-20" target="1-wTdtNywMdqqIvWyYzU-26">
          <mxGeometry relative="1" as="geometry" />
        </mxCell>
        <mxCell id="1-wTdtNywMdqqIvWyYzU-20" value="Controller Logic" style="rounded=0;whiteSpace=wrap;html=1;fillColor=#ffe6cc;strokeColor=#d79b00;" vertex="1" parent="1">
          <mxGeometry x="360" y="410" width="120" height="60" as="geometry" />
        </mxCell>
        <mxCell id="1-wTdtNywMdqqIvWyYzU-35" style="edgeStyle=orthogonalEdgeStyle;rounded=0;orthogonalLoop=1;jettySize=auto;html=1;exitX=1;exitY=0.25;exitDx=0;exitDy=0;entryX=0;entryY=0.25;entryDx=0;entryDy=0;" edge="1" parent="1" source="1-wTdtNywMdqqIvWyYzU-25" target="1-wTdtNywMdqqIvWyYzU-29">
          <mxGeometry relative="1" as="geometry" />
        </mxCell>
        <mxCell id="1-wTdtNywMdqqIvWyYzU-28" style="edgeStyle=orthogonalEdgeStyle;rounded=0;orthogonalLoop=1;jettySize=auto;html=1;exitX=0.75;exitY=0;exitDx=0;exitDy=0;entryX=0.75;entryY=1;entryDx=0;entryDy=0;" edge="1" parent="1" source="1-wTdtNywMdqqIvWyYzU-26" target="1-wTdtNywMdqqIvWyYzU-20">
          <mxGeometry relative="1" as="geometry" />
        </mxCell>
        <mxCell id="1-wTdtNywMdqqIvWyYzU-25" value="Database&lt;div&gt;(PostgresDB)&lt;/div&gt;" style="rounded=0;whiteSpace=wrap;html=1;fillColor=#e1d5e7;strokeColor=#9673a6;" vertex="1" parent="1">
          <mxGeometry x="120" y="660" width="120" height="60" as="geometry" />
        </mxCell>
        <mxCell id="1-wTdtNywMdqqIvWyYzU-30" style="edgeStyle=orthogonalEdgeStyle;rounded=0;orthogonalLoop=1;jettySize=auto;html=1;exitX=0.25;exitY=1;exitDx=0;exitDy=0;entryX=0.25;entryY=0;entryDx=0;entryDy=0;" edge="1" parent="1" source="1-wTdtNywMdqqIvWyYzU-26" target="1-wTdtNywMdqqIvWyYzU-29">
          <mxGeometry relative="1" as="geometry" />
        </mxCell>
        <mxCell id="1-wTdtNywMdqqIvWyYzU-40" style="edgeStyle=orthogonalEdgeStyle;rounded=0;orthogonalLoop=1;jettySize=auto;html=1;exitX=1;exitY=0.25;exitDx=0;exitDy=0;entryX=0.75;entryY=0;entryDx=0;entryDy=0;" edge="1" parent="1" source="1-wTdtNywMdqqIvWyYzU-26" target="1-wTdtNywMdqqIvWyYzU-38">
          <mxGeometry relative="1" as="geometry" />
        </mxCell>
        <mxCell id="1-wTdtNywMdqqIvWyYzU-26" value="Service Layer" style="rounded=0;whiteSpace=wrap;html=1;fillColor=#ffe6cc;strokeColor=#d79b00;" vertex="1" parent="1">
          <mxGeometry x="360" y="540" width="120" height="60" as="geometry" />
        </mxCell>
        <mxCell id="1-wTdtNywMdqqIvWyYzU-31" style="edgeStyle=orthogonalEdgeStyle;rounded=0;orthogonalLoop=1;jettySize=auto;html=1;exitX=0.75;exitY=0;exitDx=0;exitDy=0;entryX=0.75;entryY=1;entryDx=0;entryDy=0;" edge="1" parent="1" source="1-wTdtNywMdqqIvWyYzU-29" target="1-wTdtNywMdqqIvWyYzU-26">
          <mxGeometry relative="1" as="geometry" />
        </mxCell>
        <mxCell id="1-wTdtNywMdqqIvWyYzU-36" style="edgeStyle=orthogonalEdgeStyle;rounded=0;orthogonalLoop=1;jettySize=auto;html=1;exitX=0;exitY=0.75;exitDx=0;exitDy=0;entryX=1;entryY=0.75;entryDx=0;entryDy=0;" edge="1" parent="1" source="1-wTdtNywMdqqIvWyYzU-29" target="1-wTdtNywMdqqIvWyYzU-25">
          <mxGeometry relative="1" as="geometry" />
        </mxCell>
        <mxCell id="1-wTdtNywMdqqIvWyYzU-29" value="Repository Layer" style="rounded=0;whiteSpace=wrap;html=1;fillColor=#ffe6cc;strokeColor=#d79b00;" vertex="1" parent="1">
          <mxGeometry x="360" y="660" width="120" height="60" as="geometry" />
        </mxCell>
        <mxCell id="1-wTdtNywMdqqIvWyYzU-41" style="edgeStyle=orthogonalEdgeStyle;rounded=0;orthogonalLoop=1;jettySize=auto;html=1;exitX=0.25;exitY=0;exitDx=0;exitDy=0;entryX=1;entryY=0.75;entryDx=0;entryDy=0;" edge="1" parent="1" source="1-wTdtNywMdqqIvWyYzU-38" target="1-wTdtNywMdqqIvWyYzU-26">
          <mxGeometry relative="1" as="geometry" />
        </mxCell>
        <mxCell id="1-wTdtNywMdqqIvWyYzU-38" value="Local LLM" style="rounded=0;whiteSpace=wrap;html=1;fillColor=#f8cecc;strokeColor=#b85450;" vertex="1" parent="1">
          <mxGeometry x="600" y="640" width="120" height="60" as="geometry" />
        </mxCell>
        <mxCell id="1-wTdtNywMdqqIvWyYzU-44" value="Magic Budget Client" style="swimlane;whiteSpace=wrap;html=1;" vertex="1" parent="1">
          <mxGeometry x="80" y="40" width="440" height="240" as="geometry" />
        </mxCell>
        <mxCell id="1-wTdtNywMdqqIvWyYzU-46" value="Magic Budget Backend - N Tier Architecture" style="swimlane;whiteSpace=wrap;html=1;" vertex="1" parent="1">
          <mxGeometry x="280" y="340" width="280" height="420" as="geometry" />
        </mxCell>
        <mxCell id="1-wTdtNywMdqqIvWyYzU-47" value="Magic Budget Database" style="swimlane;whiteSpace=wrap;html=1;" vertex="1" parent="1">
          <mxGeometry x="80" y="560" width="200" height="200" as="geometry" />
        </mxCell>
        <mxCell id="1-wTdtNywMdqqIvWyYzU-48" value="Magic Budget AI" style="swimlane;whiteSpace=wrap;html=1;" vertex="1" parent="1">
          <mxGeometry x="560" y="510" width="200" height="210" as="geometry" />
        </mxCell>
      </root>
    </mxGraphModel>
  </diagram>
</mxfile>
